<svg xmlns="http://www.w3.org/2000/svg" width="18" height="18" viewBox="0 0 18 18" fill="none">
    <g clip-path="url(#clip0_12473_25205)">
        <path d="M9 18C13.9706 18 18 13.9706 18 9C18 4.02944 13.9706 0 9 0C4.02944 0 0 4.02944 0 9C0 13.9706 4.02944 18 9 18Z" fill="#D80027"/>
        <path d="M4.92539 5.47656L5.70234 7.86719H8.21602L6.18398 9.34727L6.96094 11.7379L4.92539 10.2613L2.88984 11.7379L3.67031 9.34727L1.63477 7.86719H4.14844L4.92539 5.47656Z" fill="#FFDA44"/>
        <path d="M10.6697 13.9371L10.0756 13.2059L9.19668 13.5469L9.70645 12.7559L9.1123 12.0211L10.0229 12.2637L10.5361 11.4727L10.5854 12.4148L11.4994 12.6574L10.617 12.9949L10.6697 13.9371Z" fill="#FFDA44"/>
        <path d="M11.851 11.7926L12.1322 10.8926L11.3623 10.3477L12.3045 10.3336L12.5822 9.43359L12.8881 10.3266L13.8303 10.316L13.0744 10.8785L13.3768 11.7715L12.6068 11.2266L11.851 11.7926Z" fill="#FFDA44"/>
        <path d="M13.4439 6.60469L13.0291 7.45195L13.7041 8.10938L12.7725 7.97578L12.3576 8.81953L12.1959 7.89141L11.2607 7.75781L12.0975 7.31836L11.9357 6.38672L12.6107 7.04414L13.4439 6.60469Z" fill="#FFDA44"/>
        <path d="M10.6941 4.03906L10.6238 4.97773L11.4992 5.33281L10.5816 5.55781L10.5148 6.5L10.0191 5.69844L9.10156 5.92344L9.70977 5.20273L9.21055 4.40469L10.0859 4.75977L10.6941 4.03906Z" fill="#FFDA44"/>
    </g>
    <defs>
        <clipPath id="clip0_12473_25205">
            <rect width="18" height="18" fill="white"/>
        </clipPath>
    </defs>
</svg>