<svg width="24" height="19" viewBox="0 0 33 22" fill="none" xmlns="http://www.w3.org/2000/svg">
<path d="M11.2475 11.6167L11.2475 12.3793C11.2477 14.3648 12.0419 14.7619 12.0419 14.7619C12.0419 14.7619 12.836 14.3649 12.8364 12.3792L12.836 11.7359L15.3301 11.9304C15.0599 14.0313 14.6668 16.0846 14.4246 17.542C14.1074 19.4461 15.565 20.8431 16.1637 21.3275C16.3073 21.4442 16.5132 21.4442 16.6569 21.3275C17.2555 20.8431 18.7133 19.4462 18.396 17.542C18.1538 16.0846 17.7607 14.0313 17.4905 11.9304L19.9848 11.7359L19.9847 12.3792C19.9845 14.3647 20.7792 14.7619 20.7792 14.7619C20.7792 14.7619 21.5733 14.3649 21.5735 12.3791L21.5731 11.6169L31.9294 10.819C32.1363 10.8031 32.296 10.6304 32.296 10.4229L32.2961 9.18276C32.296 8.97125 32.13 8.79678 31.9187 8.78616L21.5733 8.26885L21.5733 6.81924C21.5725 6.60035 21.395 6.42291 21.1761 6.42213L20.382 6.42226C20.163 6.42291 19.9856 6.60035 19.9849 6.81937L19.9848 8.18958L17.2047 8.05048V4.03945L20.9567 2.16346C21.0913 2.09624 21.1761 1.95881 21.1761 1.80831L21.1761 1.03196C21.1761 0.902436 21.1129 0.780945 21.0069 0.706729C20.9006 0.632383 20.765 0.61438 20.6433 0.658676L16.8733 2.02966C16.8298 2.04546 16.7839 2.0535 16.7376 2.05349H16.0832C16.037 2.05362 15.991 2.04546 15.9475 2.02966L12.1776 0.658805C12.0559 0.614509 11.9201 0.632382 11.8139 0.706728C11.708 0.781074 11.6446 0.902435 11.6446 1.03196L11.6446 1.80805C11.6446 1.95855 11.7297 2.09598 11.8642 2.16333L15.6162 4.03932L15.6163 8.01058L15.6162 8.05035L12.836 8.18958L12.836 6.8195C12.8352 6.60035 12.6579 6.42304 12.4389 6.42239L11.6448 6.42226C11.4256 6.42304 11.2483 6.60035 11.2477 6.81937V8.26898L0.901985 8.78603C0.690607 8.79665 0.524689 8.97112 0.524689 9.18275V10.4231C0.524689 10.6305 0.68439 10.8029 0.891365 10.819L11.2475 11.6167Z" fill="#373A50"/>
</svg>
