<svg xmlns="http://www.w3.org/2000/svg" width="24" height="24" viewBox="0 0 24 24" fill="none">
    <g clip-path="url(#clip0_12451_6617)">
        <mask id="mask0_12451_6617" style="mask-type:luminance" maskUnits="userSpaceOnUse" x="0" y="0" width="24" height="24">
            <path d="M0 0H24V24H0V0Z" fill="white"/>
        </mask>
        <g mask="url(#mask0_12451_6617)">
            <path d="M8.53487 1.46398C8.07073 0.999553 7.51961 0.63113 6.91303 0.379766C6.30645 0.128402 5.65628 -0.000976562 4.99967 -0.000976562C4.34307 -0.000976562 3.6929 0.128402 3.08631 0.379766C2.47973 0.63113 1.92862 0.999553 1.46447 1.46398C1.00004 1.92813 0.631618 2.47924 0.380254 3.08583C0.12889 3.69241 -0.000488281 4.34258 -0.000488281 4.99918C-0.000488281 5.65579 0.12889 6.30596 0.380254 6.91254C0.631618 7.51913 1.00004 8.07024 1.46447 8.53438C2.37752 9.44858 3.61115 9.97057 4.90307 9.98938C4.61507 9.17638 4.16387 8.40718 3.51347 7.75738L2.87867 7.12018C2.31626 6.5576 2.00031 5.79468 2.00031 4.99918C2.00031 4.20369 2.31626 3.44077 2.87867 2.87818C3.44126 2.31577 4.20418 1.99983 4.99967 1.99983C5.79517 1.99983 6.55809 2.31577 7.12067 2.87818L7.75667 3.51298C8.38717 4.14339 9.15086 4.62457 9.99167 4.92118C9.97594 3.62281 9.45311 2.38206 8.53487 1.46398ZM22.5347 1.46458C22.0705 1.00024 21.5195 0.631896 20.9129 0.380585C20.3064 0.129274 19.6563 -7.64045e-05 18.9998 -7.64045e-05C18.3432 -7.64045e-05 17.6931 0.129274 17.0866 0.380585C16.4801 0.631896 15.929 1.00024 15.4649 1.46458C14.5509 2.37829 14.029 3.61218 14.0099 4.90438C14.8229 4.61518 15.5915 4.16398 16.2419 3.51358L16.8779 2.87878C17.4405 2.31619 18.2035 2.00013 18.9992 2.00013C19.7948 2.00013 20.5579 2.31619 21.1205 2.87878C21.6829 3.44137 21.9988 4.20429 21.9988 4.99978C21.9988 5.79528 21.6829 6.5582 21.1205 7.12079L20.4869 7.75738C19.8557 8.38707 19.3744 9.15074 19.0787 9.99178C20.3768 9.97638 21.6173 9.45347 22.5347 8.53498C22.9991 8.07084 23.3675 7.51973 23.6189 6.91314C23.8703 6.30656 23.9996 5.65639 23.9996 4.99978C23.9996 4.34318 23.8703 3.69301 23.6189 3.08643C23.3675 2.47984 22.9991 1.92873 22.5347 1.46458ZM22.5359 15.4644C21.6214 14.5515 20.388 14.0298 19.0961 14.0094C19.3853 14.8236 19.8353 15.591 20.4857 16.2414L21.1211 16.878C21.6835 17.4406 21.9994 18.2035 21.9994 18.999C21.9994 19.7945 21.6835 20.5574 21.1211 21.12C20.5585 21.6824 19.7956 21.9983 19.0001 21.9983C18.2046 21.9983 17.4417 21.6824 16.8791 21.12L16.2431 20.4876C15.613 19.8563 14.8489 19.375 14.0075 19.0794C14.0238 20.3769 14.5466 21.6167 15.4643 22.5342C15.9284 22.9988 16.4796 23.3674 17.0863 23.6188C17.693 23.8703 18.3433 23.9997 19.0001 23.9997C19.6568 23.9997 20.3071 23.8703 20.9138 23.6188C21.5205 23.3674 22.0717 22.9988 22.5359 22.5342C24.4877 20.583 24.4877 17.418 22.5359 15.4644ZM7.75787 20.4852L7.12187 21.1194C6.55926 21.682 5.79621 21.998 5.00057 21.998C4.20493 21.998 3.44188 21.682 2.87927 21.1194C2.31686 20.5568 2.00091 19.7939 2.00091 18.9984C2.00091 18.2029 2.31686 17.44 2.87927 16.8774L3.51287 16.2426C4.14343 15.6117 4.62462 14.8476 4.92107 14.0064C3.62325 14.0231 2.38321 14.5458 1.46507 15.4632C0.552261 16.4058 0.0465054 17.6693 0.056886 18.9814C0.0672667 20.2935 0.592952 21.5489 1.52056 22.4769C2.44817 23.4049 3.70338 23.9311 5.01545 23.9421C6.32752 23.953 7.59132 23.4478 8.53427 22.5354C9.44701 21.6211 9.96872 20.3879 9.98927 19.0962C9.17567 19.3854 8.40767 19.8342 7.75727 20.4846" fill="white"/>
            <path d="M19.071 6.34294L20.4138 4.99954L18.9996 3.58594L17.6568 4.92754C14.5326 8.05234 9.46676 8.05234 6.34376 4.92754L4.99916 3.58594L3.58496 4.99954L4.92776 6.34354C8.05076 9.46354 8.05196 14.5263 4.93316 17.6517L3.58556 18.9993L4.99916 20.4129L6.34316 19.0707C9.46676 15.9465 14.532 15.9465 17.6562 19.0707L19.0002 20.4129L20.4138 18.9987L19.071 17.6553C15.9468 14.5323 15.9468 9.46594 19.071 6.34294Z" fill="white"/>
        </g>
    </g>
    <defs>
        <clipPath id="clip0_12451_6617">
            <rect width="24" height="24" fill="white"/>
        </clipPath>
    </defs>
</svg>