<svg xmlns="http://www.w3.org/2000/svg" width="18" height="16" viewBox="0 0 15 15" fill="none">
    <path d="M1.69763 8.44739C1.92818 8.21685 2.28381 8.18789 2.54578 8.3606L2.65235 8.44739L5.65161 11.4478L5.73841 11.5532C5.91143 11.8152 5.88228 12.1707 5.65161 12.4014C5.42095 12.632 5.06548 12.6612 4.80347 12.4882L4.698 12.4014L4.04981 11.7532L2.37879 13.4242L2.65235 13.6978C2.91546 13.9613 2.91546 14.3879 2.65235 14.6514C2.38874 14.915 1.96124 14.915 1.69763 14.6514L0.952762 13.9065C0.951098 13.9049 0.94892 13.9038 0.947269 13.9021C0.945251 13.9001 0.943763 13.8975 0.941776 13.8955L0.198001 13.1517L0.111209 13.0463C-0.0619972 12.7842 -0.0327388 12.4278 0.198001 12.197C0.461512 11.9339 0.888103 11.9339 1.15161 12.197L1.42408 12.4695L3.0951 10.7985L1.69763 9.4021L1.61084 9.29553C1.43813 9.03357 1.46709 8.67793 1.69763 8.44739ZM2.92481 0L3.05664 0.0131836C3.18652 0.0390746 3.30659 0.102729 3.40161 0.197754L11.5491 8.34412L12.1973 7.69702C12.4608 7.43348 12.8884 7.4336 13.152 7.69702C13.4156 7.96063 13.4156 8.38813 13.152 8.65173L11.3788 10.4238L13.4244 12.4695L13.698 12.197C13.9615 11.9339 14.3881 11.9339 14.6516 12.197C14.9152 12.4606 14.9152 12.8881 14.6516 13.1517L13.9067 13.8955C13.9049 13.8974 13.9042 13.9003 13.9023 13.9021C13.9005 13.9039 13.8976 13.9047 13.8958 13.9065L13.152 14.6514C12.8884 14.915 12.4609 14.915 12.1973 14.6514C11.9342 14.3879 11.9342 13.9613 12.1973 13.6978L12.4697 13.4242L10.4241 11.3785L8.65198 13.1517C8.38838 13.4153 7.96087 13.4153 7.69727 13.1517C7.43385 12.8881 7.43373 12.4606 7.69727 12.197L8.34436 11.5488L0.198001 3.40137C0.0714141 3.27478 0.000247277 3.10358 0.000247277 2.92456V0.674561L0.0134309 0.53833C0.0764371 0.230828 0.348674 0 0.674808 0H2.92481ZM1.34937 2.64441L9.29908 10.5941L10.5944 9.29883L2.64576 1.34912H1.34937V2.64441ZM12.027 6.0271C11.7634 6.29052 11.3358 6.29064 11.0723 6.0271C10.8087 5.76356 10.8088 5.33601 11.0723 5.07239L12.027 6.0271ZM14.1748 0L14.311 0.0131836C14.6185 0.0761897 14.8494 0.348427 14.8494 0.674561V2.92456C14.8494 3.10358 14.7782 3.27478 14.6516 3.40137L12.027 6.0271L11.5502 5.54919L11.0723 5.07239L13.5002 2.64441V1.34912H12.2039L9.77698 3.7771L9.30017 3.29919L8.82227 2.82239L11.448 0.197754L11.5502 0.113159C11.6603 0.0396743 11.7905 6.66751e-08 11.9248 0H14.1748ZM9.77698 3.7771C9.51336 4.04052 9.08581 4.04064 8.82227 3.7771C8.55873 3.51356 8.55885 3.08601 8.82227 2.82239L9.77698 3.7771Z" fill="#fff"/>
</svg>